<?xml version="1.0" encoding="utf-8"?>
<!-- Generator: Adobe Illustrator 16.0.0, SVG Export Plug-In . SVG Version: 6.00 Build 0)  -->
<!DOCTYPE svg PUBLIC "-//W3C//DTD SVG 1.1//EN" "http://www.w3.org/Graphics/SVG/1.1/DTD/svg11.dtd">
<svg version="1.1" id="Layer_1" xmlns="http://www.w3.org/2000/svg" xmlns:xlink="http://www.w3.org/1999/xlink" x="0px" y="0px"
	 width="20px" height="20px" viewBox="0 0 20 20" enable-background="new 0 0 20 20" xml:space="preserve">
<path fill="#0AFFF1" d="M10,18.697c-4.796,0-8.698-3.901-8.698-8.697S5.204,1.302,10,1.302S18.697,5.204,18.697,10
	S14.796,18.697,10,18.697z M10,2.302c-4.245,0-7.698,3.454-7.698,7.698c0,4.245,3.454,7.697,7.698,7.697
	c4.245,0,7.697-3.452,7.697-7.697S14.245,2.302,10,2.302z M9.819,5.712L5.142,10.39c-0.346,0.346-0.346,0.906,0,1.25l3.241,3.241
	c0.346,0.347,0.906,0.347,1.252,0l4.646-4.646V6.598c0-0.489-0.396-0.885-0.885-0.885L9.819,5.712L9.819,5.712z M11.961,9.334
	c0.09-0.09,0.238-0.09,0.329,0c0.091,0.091,0.091,0.238,0,0.329l-3.504,3.505c-0.092,0.091-0.238,0.091-0.328,0
	c-0.091-0.092-0.091-0.236,0-0.329L11.961,9.334z M11.162,8.535c0.09-0.091,0.236-0.091,0.328,0c0.091,0.09,0.091,0.237,0,0.328
	l-3.505,3.503c-0.09,0.092-0.237,0.092-0.329,0c-0.09-0.091-0.09-0.236,0-0.326L11.162,8.535z M12.557,6.589
	c0.229-0.229,0.603-0.229,0.83,0c0.229,0.229,0.229,0.601,0,0.83c-0.229,0.229-0.602,0.229-0.83,0
	C12.328,7.189,12.328,6.818,12.557,6.589z M10.361,7.734c0.09-0.09,0.239-0.09,0.329,0c0.09,0.091,0.09,0.238,0,0.328l-3.504,3.504
	c-0.091,0.092-0.238,0.092-0.329,0s-0.091-0.236,0-0.328L10.361,7.734z"/>
</svg>
