<?xml version="1.0" encoding="utf-8"?>
<!-- Generator: Adobe Illustrator 16.0.0, SVG Export Plug-In . SVG Version: 6.00 Build 0)  -->
<!DOCTYPE svg PUBLIC "-//W3C//DTD SVG 1.1//EN" "http://www.w3.org/Graphics/SVG/1.1/DTD/svg11.dtd">
<svg version="1.1" id="Layer_1" xmlns="http://www.w3.org/2000/svg" xmlns:xlink="http://www.w3.org/1999/xlink" x="0px" y="0px"
	 width="20px" height="20px" viewBox="0 0 20 20" enable-background="new 0 0 20 20" xml:space="preserve">
<path fill="#0AFFF1" d="M10,18.697c-4.796,0-8.698-3.901-8.698-8.697S5.204,1.302,10,1.302S18.697,5.204,18.697,10
	S14.796,18.697,10,18.697z M10,2.302c-4.245,0-7.698,3.454-7.698,7.698c0,4.245,3.454,7.697,7.698,7.697
	c4.245,0,7.697-3.452,7.697-7.697S14.245,2.302,10,2.302z M14.786,10.945v3.412c0,0.07-0.095,0.129-0.209,0.129H5.422
	c-0.115,0-0.208-0.059-0.208-0.129v-3.412c0-0.071,0.093-0.129,0.208-0.129h0.083v-0.733c0-0.033,0.026-0.061,0.06-0.061h1.453
	c0.033,0,0.059,0.027,0.059,0.061v0.733h0.494v-0.733c0-0.033,0.026-0.061,0.059-0.061h1.454c0.033,0,0.059,0.027,0.059,0.061v0.733
	h0.493v-0.733c0-0.033,0.026-0.061,0.059-0.061h1.454c0.033,0,0.06,0.027,0.06,0.061v0.733h0.403V7.891
	c0-0.055,0.043-0.099,0.101-0.099h2.429c0.057,0,0.101,0.044,0.101,0.099v2.927h0.337C14.691,10.816,14.786,10.875,14.786,10.945z
	 M12.885,6.138c-0.342,0-0.621,0.278-0.621,0.62c0,0.343,0.279,0.62,0.621,0.62c0.344,0,0.619-0.277,0.619-0.62
	C13.504,6.417,13.229,6.138,12.885,6.138z M11.189,5.047c-0.451,0-0.818,0.367-0.818,0.819c0,0.452,0.367,0.818,0.818,0.818
	c0.453,0,0.817-0.367,0.817-0.818C12.007,5.415,11.643,5.047,11.189,5.047z M9.98,5.841c0-0.161-0.087-0.308-0.23-0.418
	C9.757,5.39,9.762,5.355,9.762,5.32c0-0.311-0.323-0.567-0.745-0.614c-0.14-0.209-0.442-0.354-0.792-0.354
	c-0.485,0-0.877,0.277-0.877,0.62c0,0.142,0.069,0.273,0.182,0.378C7.264,5.464,7.093,5.64,7.093,5.839
	c0,0.304,0.401,0.558,0.928,0.609C8.012,6.486,8.007,6.523,8.007,6.56c0,0.343,0.393,0.62,0.878,0.62
	c0.484,0,0.876-0.277,0.876-0.62c0-0.091-0.027-0.178-0.078-0.255C9.865,6.191,9.98,6.025,9.98,5.841z"/>
</svg>
