<?xml version="1.0" encoding="utf-8"?>
<!-- Generator: Adobe Illustrator 16.0.0, SVG Export Plug-In . SVG Version: 6.00 Build 0)  -->
<!DOCTYPE svg PUBLIC "-//W3C//DTD SVG 1.1//EN" "http://www.w3.org/Graphics/SVG/1.1/DTD/svg11.dtd">
<svg version="1.1" id="Layer_1" xmlns="http://www.w3.org/2000/svg" xmlns:xlink="http://www.w3.org/1999/xlink" x="0px" y="0px"
	 width="20px" height="20px" viewBox="0 0 20 20" enable-background="new 0 0 20 20" xml:space="preserve">
<path fill="#0AFFF1" d="M10,18.697c-4.796,0-8.698-3.901-8.698-8.697S5.204,1.302,10,1.302S18.697,5.204,18.697,10
	S14.796,18.697,10,18.697z M10,2.302c-4.245,0-7.698,3.454-7.698,7.698c0,4.245,3.454,7.697,7.698,7.697
	c4.245,0,7.697-3.452,7.697-7.697S14.245,2.302,10,2.302z M10.67,5.6c-0.191,0.066-0.292,0.274-0.227,0.464
	c0.065,0.191,0.274,0.293,0.464,0.227c0.19-0.065,0.292-0.273,0.227-0.464C11.068,5.635,10.861,5.534,10.67,5.6z M11.73,4.52H8.5
	c-0.286,0-0.519,0.232-0.519,0.519V8.27c0,0.287,0.232,0.519,0.519,0.519h3.232c0.285,0,0.519-0.232,0.519-0.519V5.038
	C12.25,4.752,12.018,4.52,11.73,4.52z M10.362,7.75c-0.032-0.009-0.066-0.012-0.102-0.008c-0.152,0.016-0.262,0.152-0.246,0.305
	c0.003,0.035,0.013,0.068,0.029,0.097C9.974,8.195,9.897,8.238,9.814,8.27c-0.053-0.092-0.157-0.149-0.27-0.137
	C9.431,8.145,9.343,8.222,9.31,8.324C9.223,8.31,9.138,8.285,9.059,8.25c0.008-0.032,0.012-0.067,0.008-0.102
	C9.05,7.996,8.915,7.885,8.762,7.902C8.727,7.906,8.694,7.916,8.665,7.931c-0.051-0.07-0.094-0.147-0.125-0.23
	c0.092-0.053,0.149-0.157,0.137-0.269C8.665,7.319,8.587,7.23,8.486,7.198C8.5,7.11,8.525,7.026,8.56,6.947
	c0.033,0.008,0.066,0.012,0.102,0.008C8.814,6.939,8.924,6.803,8.908,6.65C8.903,6.614,8.893,6.581,8.877,6.552
	C8.947,6.5,9.025,6.458,9.108,6.426c0.053,0.092,0.157,0.149,0.269,0.138c0.113-0.012,0.202-0.09,0.234-0.191
	C9.7,6.386,9.784,6.411,9.862,6.446c-0.008,0.032-0.01,0.067-0.007,0.102C9.871,6.7,10.007,6.81,10.159,6.794
	c0.035-0.004,0.068-0.014,0.098-0.03c0.051,0.07,0.093,0.147,0.125,0.23c-0.092,0.053-0.149,0.157-0.137,0.269
	c0.012,0.113,0.089,0.202,0.191,0.235C10.423,7.586,10.397,7.671,10.362,7.75z M11.758,6.137c-0.033-0.001-0.066,0.003-0.101,0.015
	c-0.146,0.05-0.222,0.207-0.173,0.352c0.012,0.033,0.029,0.063,0.051,0.088c-0.057,0.066-0.122,0.125-0.196,0.174
	c-0.071-0.078-0.187-0.111-0.294-0.074s-0.177,0.133-0.186,0.239c-0.09,0.006-0.178,0-0.262-0.017c0-0.033-0.004-0.067-0.015-0.101
	c-0.05-0.145-0.208-0.222-0.352-0.172c-0.034,0.012-0.063,0.029-0.089,0.05c-0.065-0.056-0.125-0.122-0.174-0.196
	c0.079-0.072,0.111-0.187,0.074-0.294C10.006,6.095,9.91,6.025,9.804,6.016c-0.006-0.088,0-0.177,0.016-0.262
	C9.854,5.755,9.888,5.75,9.921,5.739c0.144-0.05,0.222-0.207,0.171-0.352c-0.011-0.033-0.028-0.063-0.05-0.088
	c0.058-0.066,0.123-0.124,0.197-0.174c0.073,0.079,0.187,0.111,0.293,0.074c0.106-0.037,0.177-0.133,0.186-0.239
	c0.089-0.006,0.177,0,0.263,0.017c-0.002,0.033,0.002,0.067,0.015,0.101c0.05,0.145,0.207,0.222,0.353,0.172
	c0.033-0.012,0.063-0.029,0.088-0.05c0.065,0.056,0.125,0.122,0.174,0.196c-0.077,0.072-0.109,0.186-0.073,0.293
	s0.132,0.177,0.237,0.186C11.779,5.964,11.773,6.052,11.758,6.137z M9.422,6.984C9.221,7.006,9.076,7.186,9.098,7.387
	c0.021,0.2,0.201,0.346,0.402,0.324C9.7,7.69,9.846,7.51,9.824,7.309S9.623,6.962,9.422,6.984z M15.574,10.158
	c-0.563-1.697-1.896-2.788-3.014-2.48V8.27c0,0.458-0.371,0.83-0.83,0.83H8.5c-0.457,0-0.83-0.373-0.83-0.83V7.678
	c-1.115-0.308-2.451,0.783-3.014,2.48c-0.573,1.73-0.124,3.438,1.005,3.813c1.004,0.332,2.208-0.504,2.865-1.912h3.177
	c0.656,1.408,1.861,2.244,2.865,1.912C15.697,13.598,16.148,11.891,15.574,10.158z M8.378,10.443c0,0.035-0.029,0.065-0.065,0.065
	H7.439v0.872c0,0.037-0.029,0.065-0.065,0.065H6.82c-0.036,0-0.065-0.028-0.065-0.065v-0.872H5.882c-0.036,0-0.065-0.03-0.065-0.065
	V9.89c0-0.036,0.03-0.065,0.065-0.065h0.874V8.951c0-0.037,0.029-0.065,0.065-0.065h0.553c0.037,0,0.065,0.029,0.065,0.065v0.873
	h0.874c0.036,0,0.065,0.029,0.065,0.065V10.443z M12.128,10.813c-0.244,0-0.442-0.197-0.442-0.44c0-0.245,0.198-0.442,0.442-0.442
	c0.243,0,0.44,0.198,0.44,0.442C12.568,10.615,12.371,10.813,12.128,10.813z M13.171,11.855c-0.243,0-0.442-0.199-0.442-0.441
	c0-0.243,0.199-0.441,0.442-0.441s0.44,0.198,0.44,0.441C13.611,11.656,13.414,11.855,13.171,11.855z M13.171,9.769
	c-0.243,0-0.442-0.197-0.442-0.441c0-0.244,0.199-0.441,0.442-0.441s0.44,0.198,0.44,0.441C13.611,9.572,13.414,9.769,13.171,9.769z
	 M14.214,10.813c-0.243,0-0.442-0.197-0.442-0.44c0-0.245,0.199-0.442,0.442-0.442s0.442,0.198,0.442,0.442
	C14.656,10.615,14.457,10.813,14.214,10.813z"/>
</svg>
