<?xml version="1.0" encoding="utf-8"?>
<!-- Generator: Adobe Illustrator 16.0.0, SVG Export Plug-In . SVG Version: 6.00 Build 0)  -->
<!DOCTYPE svg PUBLIC "-//W3C//DTD SVG 1.1//EN" "http://www.w3.org/Graphics/SVG/1.1/DTD/svg11.dtd">
<svg version="1.1" id="Layer_1" xmlns="http://www.w3.org/2000/svg" xmlns:xlink="http://www.w3.org/1999/xlink" x="0px" y="0px"
	 width="20px" height="20px" viewBox="0 0 20 20" enable-background="new 0 0 20 20" xml:space="preserve">
<path fill="#0AFFF1" d="M14.434,6.604c0.053,0.018,0.053,0.047,0,0.065l-4.311,1.465c-0.052,0.018-0.137,0.018-0.189,0L5.621,6.669
	c-0.052-0.018-0.052-0.047,0-0.065l4.312-1.466c0.052-0.018,0.137-0.018,0.189,0L14.434,6.604z M10.691,6.438
	c0-0.157-0.297-0.284-0.666-0.284c-0.365,0-0.662,0.127-0.662,0.284c0,0.156,0.296,0.282,0.662,0.282
	C10.394,6.72,10.691,6.594,10.691,6.438z M9.747,14.518c0,0.129-0.104,0.233-0.233,0.233l-3.946-1.39
	c-0.128,0-0.232-0.104-0.232-0.232v-5.67c0-0.129,0.104-0.234,0.232-0.234l3.946,1.389c0.129,0,0.233,0.104,0.233,0.232V14.518z
	 M8.749,12.684c-0.214,0.019-0.362,0.314-0.333,0.662c0.031,0.348,0.229,0.612,0.443,0.596c0.213-0.02,0.362-0.315,0.333-0.664
	C9.16,12.932,8.962,12.664,8.749,12.684z M6.054,7.871C5.839,7.889,5.69,8.186,5.72,8.533C5.751,8.88,5.948,9.147,6.163,9.127
	c0.214-0.018,0.363-0.315,0.333-0.662C6.465,8.119,6.267,7.853,6.054,7.871z M14.754,13.129c0,0.129-0.104,0.232-0.232,0.232
	l-3.945,1.39c-0.13,0-0.234-0.104-0.234-0.233V8.846c0-0.128,0.104-0.232,0.234-0.232l3.945-1.389c0.129,0,0.232,0.104,0.232,0.234
	V13.129z M10.898,13.277c-0.029,0.348,0.121,0.645,0.332,0.662c0.215,0.019,0.412-0.248,0.442-0.596
	c0.029-0.347-0.12-0.644-0.334-0.662C11.127,12.664,10.93,12.932,10.898,13.277z M10.695,9.45c-0.031,0.347,0.117,0.644,0.332,0.662
	c0.215,0.019,0.412-0.248,0.441-0.595c0.03-0.347-0.117-0.644-0.332-0.662C10.922,8.836,10.725,9.102,10.695,9.45z M13.593,8.465
	c-0.028,0.347,0.12,0.644,0.335,0.662c0.213,0.02,0.411-0.247,0.441-0.594c0.029-0.347-0.12-0.644-0.333-0.662
	C13.822,7.853,13.624,8.119,13.593,8.465z M13.593,12.486c-0.028,0.349,0.12,0.646,0.335,0.664c0.213,0.018,0.411-0.248,0.441-0.596
	c0.029-0.348-0.12-0.644-0.333-0.662C13.822,11.875,13.624,12.141,13.593,12.486z M10,18.697c-4.796,0-8.698-3.901-8.698-8.697
	S5.204,1.302,10,1.302S18.697,5.204,18.697,10S14.796,18.697,10,18.697z M10,2.302c-4.245,0-7.698,3.454-7.698,7.698
	c0,4.245,3.454,7.697,7.698,7.697c4.245,0,7.697-3.452,7.697-7.697S14.245,2.302,10,2.302z"/>
</svg>
