<?xml version="1.0" encoding="iso-8859-1"?>
<!-- Generator: Adobe Illustrator 16.0.0, SVG Export Plug-In . SVG Version: 6.00 Build 0)  -->
<!DOCTYPE svg PUBLIC "-//W3C//DTD SVG 1.1//EN" "http://www.w3.org/Graphics/SVG/1.1/DTD/svg11.dtd">
<svg version="1.1" id="Layer_1" xmlns="http://www.w3.org/2000/svg" xmlns:xlink="http://www.w3.org/1999/xlink" x="0px" y="0px"
	 width="20px" height="20px" viewBox="0 0 20 20" style="enable-background:new 0 0 20 20;" xml:space="preserve">
<path d="M10,18.698c-4.796,0-8.698-3.902-8.698-8.698c0-4.796,3.902-8.698,8.698-8.698c4.796,0,8.698,3.902,8.698,8.698
	C18.698,14.796,14.796,18.698,10,18.698z M10,2.302c-4.245,0-7.698,3.454-7.698,7.698c0,4.245,3.454,7.698,7.698,7.698
	c4.245,0,7.698-3.453,7.698-7.698C17.698,5.755,14.245,2.302,10,2.302z M9.819,5.712L5.142,10.39c-0.346,0.346-0.346,0.906,0,1.251
	l3.241,3.241c0.346,0.346,0.906,0.346,1.252,0l4.646-4.646V6.598c0-0.489-0.396-0.885-0.885-0.885H9.819z M11.961,9.334
	c0.09-0.09,0.238-0.09,0.329,0c0.091,0.091,0.091,0.238,0,0.329l-3.504,3.505c-0.092,0.091-0.238,0.091-0.328,0
	c-0.091-0.092-0.091-0.237,0-0.329L11.961,9.334z M11.162,8.535c0.09-0.091,0.236-0.091,0.328,0c0.091,0.09,0.091,0.237,0,0.328
	l-3.505,3.503c-0.09,0.092-0.237,0.092-0.329,0c-0.09-0.09-0.09-0.236,0-0.326L11.162,8.535z M12.556,6.589
	c0.229-0.229,0.603-0.229,0.831,0c0.229,0.229,0.229,0.601,0,0.83c-0.229,0.229-0.602,0.229-0.831,0
	C12.328,7.189,12.328,6.818,12.556,6.589z M10.361,7.734c0.09-0.09,0.238-0.09,0.328,0c0.091,0.091,0.091,0.238,0,0.328
	l-3.504,3.504c-0.091,0.092-0.238,0.092-0.329,0c-0.091-0.091-0.091-0.236,0-0.327L10.361,7.734z"/>
</svg>
