<?xml version="1.0" encoding="iso-8859-1"?>
<!-- Generator: Adobe Illustrator 16.0.0, SVG Export Plug-In . SVG Version: 6.00 Build 0)  -->
<!DOCTYPE svg PUBLIC "-//W3C//DTD SVG 1.1//EN" "http://www.w3.org/Graphics/SVG/1.1/DTD/svg11.dtd">
<svg version="1.1" id="Layer_1" xmlns="http://www.w3.org/2000/svg" xmlns:xlink="http://www.w3.org/1999/xlink" x="0px" y="0px"
	 width="20px" height="20px" viewBox="0 0 20 20" style="enable-background:new 0 0 20 20;" xml:space="preserve">
<path d="M10,18.698c-4.796,0-8.698-3.902-8.698-8.698c0-4.796,3.902-8.698,8.698-8.698c4.796,0,8.698,3.902,8.698,8.698
	C18.698,14.796,14.796,18.698,10,18.698z M10,2.302c-4.245,0-7.698,3.454-7.698,7.698c0,4.245,3.454,7.698,7.698,7.698
	c4.245,0,7.698-3.453,7.698-7.698C17.698,5.755,14.245,2.302,10,2.302z M10.67,5.6c-0.191,0.066-0.292,0.274-0.227,0.464
	c0.065,0.191,0.274,0.293,0.464,0.227c0.191-0.065,0.292-0.273,0.227-0.464C11.069,5.635,10.861,5.534,10.67,5.6z M11.731,4.52H8.5
	c-0.286,0-0.519,0.232-0.519,0.519V8.27c0,0.287,0.232,0.519,0.519,0.519h3.232c0.286,0,0.519-0.232,0.519-0.519V5.038
	C12.25,4.752,12.018,4.52,11.731,4.52z M10.362,7.75c-0.032-0.009-0.066-0.012-0.102-0.008c-0.152,0.016-0.262,0.152-0.246,0.305
	c0.003,0.035,0.013,0.068,0.029,0.097C9.974,8.195,9.897,8.238,9.814,8.27c-0.053-0.092-0.157-0.149-0.27-0.137
	S9.343,8.222,9.31,8.324C9.223,8.31,9.138,8.285,9.059,8.25c0.008-0.032,0.012-0.067,0.008-0.102
	C9.05,7.996,8.915,7.885,8.762,7.902C8.727,7.906,8.694,7.916,8.665,7.931c-0.051-0.07-0.094-0.147-0.125-0.23
	c0.092-0.053,0.149-0.157,0.137-0.269c-0.012-0.113-0.09-0.202-0.191-0.234c0.014-0.088,0.039-0.172,0.074-0.251
	c0.033,0.008,0.066,0.012,0.102,0.008c0.152-0.016,0.262-0.152,0.246-0.305C8.903,6.614,8.893,6.581,8.877,6.552
	C8.947,6.5,9.025,6.458,9.108,6.426c0.053,0.092,0.157,0.149,0.269,0.138c0.113-0.012,0.202-0.09,0.234-0.191
	C9.7,6.386,9.784,6.411,9.862,6.446C9.854,6.478,9.852,6.513,9.855,6.548C9.871,6.7,10.007,6.81,10.159,6.794
	c0.035-0.004,0.068-0.014,0.098-0.03c0.051,0.07,0.093,0.147,0.125,0.23c-0.092,0.053-0.149,0.157-0.137,0.269
	c0.012,0.113,0.089,0.202,0.191,0.235C10.423,7.586,10.397,7.671,10.362,7.75z M11.758,6.137c-0.034-0.001-0.067,0.003-0.101,0.015
	c-0.146,0.05-0.222,0.207-0.173,0.352c0.012,0.033,0.029,0.063,0.051,0.088c-0.057,0.066-0.122,0.125-0.196,0.174
	c-0.072-0.078-0.187-0.111-0.294-0.074c-0.107,0.037-0.177,0.133-0.186,0.239c-0.089,0.006-0.177,0-0.261-0.017
	c0-0.033-0.004-0.067-0.015-0.101c-0.05-0.145-0.208-0.222-0.352-0.172c-0.034,0.012-0.063,0.029-0.089,0.05
	c-0.065-0.056-0.125-0.122-0.174-0.196c0.079-0.072,0.111-0.187,0.074-0.294C10.006,6.095,9.91,6.025,9.804,6.016
	c-0.006-0.088,0-0.177,0.016-0.262C9.854,5.755,9.888,5.75,9.921,5.739c0.144-0.05,0.222-0.207,0.171-0.352
	c-0.011-0.033-0.028-0.063-0.05-0.088c0.058-0.066,0.123-0.124,0.197-0.174c0.073,0.079,0.187,0.111,0.293,0.074
	s0.177-0.133,0.186-0.239c0.089-0.006,0.177,0,0.262,0.017c-0.002,0.033,0.003,0.067,0.015,0.101
	c0.05,0.145,0.207,0.222,0.352,0.172c0.034-0.012,0.063-0.029,0.089-0.05c0.065,0.056,0.124,0.122,0.174,0.196
	c-0.078,0.072-0.11,0.186-0.074,0.293c0.037,0.107,0.132,0.177,0.238,0.186C11.78,5.964,11.774,6.052,11.758,6.137z M9.422,6.984
	C9.221,7.006,9.076,7.186,9.098,7.387c0.021,0.2,0.201,0.346,0.402,0.324C9.7,7.69,9.846,7.51,9.824,7.309
	C9.802,7.108,9.623,6.962,9.422,6.984z M15.574,10.158c-0.562-1.697-1.897-2.788-3.013-2.48V8.27c0,0.458-0.372,0.83-0.83,0.83H8.5
	c-0.457,0-0.83-0.373-0.83-0.83V7.678c-1.115-0.308-2.451,0.783-3.014,2.48c-0.573,1.731-0.124,3.438,1.005,3.813
	c1.004,0.332,2.208-0.504,2.865-1.912h3.177c0.657,1.408,1.861,2.244,2.865,1.912C15.698,13.597,16.148,11.89,15.574,10.158z
	 M8.378,10.443c0,0.035-0.029,0.065-0.065,0.065H7.439v0.872c0,0.037-0.029,0.066-0.065,0.066H6.82
	c-0.036,0-0.065-0.029-0.065-0.066v-0.872H5.882c-0.036,0-0.065-0.03-0.065-0.065V9.89c0-0.036,0.03-0.065,0.065-0.065h0.874V8.951
	c0-0.037,0.029-0.065,0.065-0.065h0.553c0.037,0,0.065,0.029,0.065,0.065v0.873h0.874c0.036,0,0.065,0.029,0.065,0.065V10.443z
	 M12.128,10.813c-0.244,0-0.442-0.198-0.442-0.441c0-0.245,0.198-0.442,0.442-0.442c0.243,0,0.441,0.198,0.441,0.442
	C12.569,10.615,12.371,10.813,12.128,10.813z M13.171,11.855c-0.244,0-0.442-0.198-0.442-0.441s0.198-0.442,0.442-0.442
	c0.243,0,0.441,0.199,0.441,0.442S13.414,11.855,13.171,11.855z M13.171,9.769c-0.244,0-0.442-0.197-0.442-0.441
	c0-0.244,0.198-0.441,0.442-0.441c0.243,0,0.441,0.198,0.441,0.441C13.612,9.572,13.414,9.769,13.171,9.769z M14.214,10.813
	c-0.244,0-0.442-0.198-0.442-0.441c0-0.245,0.198-0.442,0.442-0.442c0.243,0,0.442,0.198,0.442,0.442
	C14.656,10.615,14.457,10.813,14.214,10.813z"/>
</svg>
